<svg xmlns="http://www.w3.org/2000/svg" width="48" height="48" viewBox="0 0 48 48">
    <!-- Stronger background circle -->
    <circle cx="24" cy="24" r="22" fill="#FFA116" opacity="0.3"/>

    <!-- LeetCode logo (deep black foreground) -->
    <path fill="#111111" d="M19.73 36.62a.75.75 0 0 1-1.02-.28l-7.73-13.4a.75.75 0 0 1 0-.74l7.73-13.4a.75.75 0 0 1 1.3.74l-7.42 12.8 7.42 12.8a.75.75 0 0 1-.28 1.02Zm10.8-1.9c.68-.66 1.06-1.56 1.06-2.72 0-1.13-.34-2.01-1.01-2.64-.67-.63-1.7-.94-3.08-.94H21.3c-.41 0-.74.33-.74.74v1.34c0 .41.33.74.74.74h6.78c.64 0 1.11.13 1.39.4.28.27.42.64.42 1.14 0 .54-.15.93-.46 1.17-.3.24-.8.36-1.5.36H21.3c-.41 0-.74.33-.74.74v1.34c0 .41.33.74.74.74h6.85c1.56 0 2.71-.36 3.38-1.08Z"/>
</svg>