<?xml version="1.0" encoding="utf-8"?>
<svg width="1200" height="340" viewBox="0 0 1200 340" xmlns="http://www.w3.org/2000/svg" role="img" aria-label="Monthly contributions 2025">
<defs>
    <linearGradient id="areaGradient" x1="0" x2="0" y1="0" y2="1">
      <stop offset="0%" stop-color="#60a5fa" stop-opacity="0.16"/>
      <stop offset="100%" stop-color="#60a5fa" stop-opacity="0.02"/>
    </linearGradient>
    <filter id="softGlow" x="-50%" y="-50%" width="200%" height="200%">
      <feGaussianBlur stdDeviation="6" result="coloredBlur"/>
      <feMerge>
        <feMergeNode in="coloredBlur"/>
        <feMergeNode in="SourceGraphic"/>
      </feMerge>
    </filter>
    <style>
      .title { font-family: Inter, Arial, sans-serif; font-size:18px; fill:#e6eef6; font-weight:700; }
      .label { font-family: Inter, Arial, sans-serif; font-size:11px; fill:#c7d2da; }
      .monthLabel { font-family: Inter, Arial, sans-serif; font-size:12px; fill:#cfe8ff; }
      .axis { stroke:rgba(255,255,255,0.10); stroke-width:1; }
      .grid { stroke:rgba(255,255,255,0.04); stroke-width:1; stroke-dasharray:4 4; }
      .curve { fill:none; stroke:#60a5fa; stroke-width:3; stroke-linecap:round; stroke-linejoin:round; vector-effect:non-scaling-stroke; }
      .curve-glow { fill:none; stroke:#60a5fa; stroke-width:12; stroke-opacity:0.06; stroke-linecap:round; stroke-linejoin:round; filter:url(#softGlow); }
      .area { fill:url(#areaGradient); opacity:0.95; }
      /* draw animation */
      .draw {
        stroke-dasharray: 2000;
        stroke-dashoffset: 2000;
        animation: drawLine 1.6s ease-out forwards;
      }
      @keyframes drawLine {
        to { stroke-dashoffset: 0; }
      }
      .fadeIn {
        opacity: 0;
        animation: fadeInArea 1.2s ease-out 0.2s forwards;
      }
      @keyframes fadeInArea {
        to { opacity: 1; }
      }
    </style>
  </defs>
<rect width="100%" height="100%" rx="12" fill="#0f1720" />
<text x="600" y="36.66666666666667" text-anchor="middle" class="title">Contributions — 2025</text>
<line x1="72.00" x2="72.00" y1="44" y2="280" class="grid" />
<line x1="170.18" x2="170.18" y1="44" y2="280" class="grid" />
<line x1="268.36" x2="268.36" y1="44" y2="280" class="grid" />
<line x1="366.55" x2="366.55" y1="44" y2="280" class="grid" />
<line x1="464.73" x2="464.73" y1="44" y2="280" class="grid" />
<line x1="562.91" x2="562.91" y1="44" y2="280" class="grid" />
<line x1="661.09" x2="661.09" y1="44" y2="280" class="grid" />
<line x1="759.27" x2="759.27" y1="44" y2="280" class="grid" />
<line x1="857.45" x2="857.45" y1="44" y2="280" class="grid" />
<line x1="955.64" x2="955.64" y1="44" y2="280" class="grid" />
<line x1="1053.82" x2="1053.82" y1="44" y2="280" class="grid" />
<line x1="1152.00" x2="1152.00" y1="44" y2="280" class="grid" />
<line x1="72" x2="1152" y1="44" y2="44" class="grid" />
<line x1="72" x2="1152" y1="91.2" y2="91.2" class="grid" />
<line x1="72" x2="1152" y1="138.4" y2="138.4" class="grid" />
<line x1="72" x2="1152" y1="185.6" y2="185.6" class="grid" />
<line x1="72" x2="1152" y1="232.8" y2="232.8" class="grid" />
<line x1="72" x2="1152" y1="280" y2="280" class="grid" />
<text x="60" y="48" text-anchor="end" class="label">1051</text>
<text x="60" y="95.2" text-anchor="end" class="label">841</text>
<text x="60" y="142.4" text-anchor="end" class="label">631</text>
<text x="60" y="189.6" text-anchor="end" class="label">420</text>
<text x="60" y="236.8" text-anchor="end" class="label">210</text>
<text x="60" y="284" text-anchor="end" class="label">0</text>
<text x="72.00" y="322" text-anchor="middle" class="monthLabel">Jan</text>
<text x="170.18" y="322" text-anchor="middle" class="monthLabel">Feb</text>
<text x="268.36" y="322" text-anchor="middle" class="monthLabel">Mar</text>
<text x="366.55" y="322" text-anchor="middle" class="monthLabel">Apr</text>
<text x="464.73" y="322" text-anchor="middle" class="monthLabel">May</text>
<text x="562.91" y="322" text-anchor="middle" class="monthLabel">Jun</text>
<text x="661.09" y="322" text-anchor="middle" class="monthLabel">Jul</text>
<text x="759.27" y="322" text-anchor="middle" class="monthLabel">Aug</text>
<text x="857.45" y="322" text-anchor="middle" class="monthLabel">Sep</text>
<text x="955.64" y="322" text-anchor="middle" class="monthLabel">Oct</text>
<text x="1053.82" y="322" text-anchor="middle" class="monthLabel">Nov</text>
<text x="1152.00" y="322" text-anchor="middle" class="monthLabel">Dec</text>
<path d="M 72.00 221.62 C 88.36 223.71, 137.45 238.95, 170.18 234.19 C 202.91 229.44, 235.64 196.06, 268.36 193.10 C 301.09 190.14, 333.82 205.30, 366.55 216.45 C 399.27 227.61, 432.00 264.54, 464.73 260.02 C 497.45 255.49, 530.18 188.38, 562.91 189.28 C 595.64 190.18, 628.36 252.79, 661.09 265.40 C 693.82 278.02, 726.55 301.86, 759.27 264.96 C 792.00 228.05, 824.73 44.22, 857.45 44.00 C 890.18 43.78, 922.91 224.27, 955.64 263.61 C 988.36 302.94, 1021.09 277.27, 1053.82 280.00 C 1086.55 282.73, 1135.64 280.00, 1152.00 280.00  L 1152.00 280.00 L 72.00 280.00 Z" class="area fadeIn" />
<path d="M 72.00 221.62 C 88.36 223.71, 137.45 238.95, 170.18 234.19 C 202.91 229.44, 235.64 196.06, 268.36 193.10 C 301.09 190.14, 333.82 205.30, 366.55 216.45 C 399.27 227.61, 432.00 264.54, 464.73 260.02 C 497.45 255.49, 530.18 188.38, 562.91 189.28 C 595.64 190.18, 628.36 252.79, 661.09 265.40 C 693.82 278.02, 726.55 301.86, 759.27 264.96 C 792.00 228.05, 824.73 44.22, 857.45 44.00 C 890.18 43.78, 922.91 224.27, 955.64 263.61 C 988.36 302.94, 1021.09 277.27, 1053.82 280.00 C 1086.55 282.73, 1135.64 280.00, 1152.00 280.00 " class="curve-glow" />
<path d="M 72.00 221.62 C 88.36 223.71, 137.45 238.95, 170.18 234.19 C 202.91 229.44, 235.64 196.06, 268.36 193.10 C 301.09 190.14, 333.82 205.30, 366.55 216.45 C 399.27 227.61, 432.00 264.54, 464.73 260.02 C 497.45 255.49, 530.18 188.38, 562.91 189.28 C 595.64 190.18, 628.36 252.79, 661.09 265.40 C 693.82 278.02, 726.55 301.86, 759.27 264.96 C 792.00 228.05, 824.73 44.22, 857.45 44.00 C 890.18 43.78, 922.91 224.27, 955.64 263.61 C 988.36 302.94, 1021.09 277.27, 1053.82 280.00 C 1086.55 282.73, 1135.64 280.00, 1152.00 280.00 " class="curve draw" />
<circle cx="72" cy="221.6175071360609" r="4.5" fill="#9be7ff" stroke="#063241" stroke-width="1" />
<title>Jan 2025: 260 contributions</title>
<text x="72" y="209.6175071360609" text-anchor="middle" class="label">260</text>
<circle cx="170.1818181818182" cy="234.19219790675547" r="4.5" fill="#9be7ff" stroke="#063241" stroke-width="1" />
<title>Feb 2025: 204 contributions</title>
<text x="170.1818181818182" y="222.19219790675547" text-anchor="middle" class="label">204</text>
<circle cx="268.3636363636364" cy="193.0999048525214" r="4.5" fill="#9be7ff" stroke="#063241" stroke-width="1" />
<title>Mar 2025: 387 contributions</title>
<text x="268.3636363636364" y="181.0999048525214" text-anchor="middle" class="label">387</text>
<circle cx="366.5454545454545" cy="216.45290199809705" r="4.5" fill="#9be7ff" stroke="#063241" stroke-width="1" />
<title>Apr 2025: 283 contributions</title>
<text x="366.5454545454545" y="204.45290199809705" text-anchor="middle" class="label">283</text>
<circle cx="464.72727272727275" cy="260.0152235965747" r="4.5" fill="#9be7ff" stroke="#063241" stroke-width="1" />
<title>May 2025: 89 contributions</title>
<text x="464.72727272727275" y="248.01522359657469" text-anchor="middle" class="label">89</text>
<circle cx="562.9090909090909" cy="189.2825880114177" r="4.5" fill="#9be7ff" stroke="#063241" stroke-width="1" />
<title>Jun 2025: 404 contributions</title>
<text x="562.9090909090909" y="177.2825880114177" text-anchor="middle" class="label">404</text>
<circle cx="661.090909090909" cy="265.4043767840152" r="4.5" fill="#9be7ff" stroke="#063241" stroke-width="1" />
<title>Jul 2025: 65 contributions</title>
<text x="661.090909090909" y="253.4043767840152" text-anchor="middle" class="label">65</text>
<circle cx="759.2727272727273" cy="264.95528068506184" r="4.5" fill="#9be7ff" stroke="#063241" stroke-width="1" />
<title>Aug 2025: 67 contributions</title>
<text x="759.2727272727273" y="252.95528068506184" text-anchor="middle" class="label">67</text>
<circle cx="857.4545454545455" cy="44" r="4.5" fill="#9be7ff" stroke="#063241" stroke-width="1" />
<title>Sep 2025: 1051 contributions</title>
<text x="857.4545454545455" y="32" text-anchor="middle" class="label">1051</text>
<circle cx="955.6363636363637" cy="263.6079923882017" r="4.5" fill="#9be7ff" stroke="#063241" stroke-width="1" />
<title>Oct 2025: 73 contributions</title>
<text x="955.6363636363637" y="251.6079923882017" text-anchor="middle" class="label">73</text>
<circle cx="1053.8181818181818" cy="280" r="4.5" fill="#9be7ff" stroke="#063241" stroke-width="1" />
<title>Nov 2025: 0 contributions</title>
<circle cx="1152" cy="280" r="4.5" fill="#9be7ff" stroke="#063241" stroke-width="1" />
<title>Dec 2025: 0 contributions</title>
<line x1="72" x2="1152" y1="280" y2="280" class="axis" />
<line x1="72" x2="72" y1="44" y2="280" class="axis" />
</svg>